<svg width="32.000000" height="32.000000" viewBox="0 0 32 32" fill="none" xmlns="http://www.w3.org/2000/svg" xmlns:xlink="http://www.w3.org/1999/xlink">
	<desc>
			Created with Pixso.
	</desc>
	<defs>
		<clipPath id="clip16302_177">
			<rect id="emojione-flag-for-flag-united-states" width="32.000000" height="32.000000" fill="white" fill-opacity="0"/>
		</clipPath>
	</defs>
	<rect id="emojione-flag-for-flag-united-states" width="32.000000" height="32.000000" fill="#FFFFFF" fill-opacity="0"/>
	<g clip-path="url(#clip16302_177)">
		<path id="Vector" d="M24 3.3C21.65 1.85 18.94 1 16 1L16 3.3L24 3.3Z" fill="#ED4C5C" fill-opacity="1.000000" fill-rule="nonzero"/>
		<path id="Vector" d="M16 5.6L26.8 5.6C25.94 4.75 25 3.94 24 3.3L16 3.3L16 5.6Z" fill="#FFFFFF" fill-opacity="1.000000" fill-rule="nonzero"/>
		<path id="Vector" d="M16 7.9L28.65 7.9C28.09 7.05 27.5 6.3 26.84 5.6L16 5.6L16 7.9Z" fill="#ED4C5C" fill-opacity="1.000000" fill-rule="nonzero"/>
		<path id="Vector" d="M16 10.2L29.84 10.2C29.5 9.39 29.09 8.59 28.65 7.89L16 7.89L16 10.2Z" fill="#FFFFFF" fill-opacity="1.000000" fill-rule="nonzero"/>
		<path id="Vector" d="M16 12.5L30.59 12.5C30.4 11.7 30.15 10.95 29.84 10.2L16 10.2L16 12.5Z" fill="#ED4C5C" fill-opacity="1.000000" fill-rule="nonzero"/>
		<path id="Vector" d="M16 14.85L30.94 14.85C30.9 14.05 30.75 13.3 30.59 12.55L16 12.55L16 14.85Z" fill="#FFFFFF" fill-opacity="1.000000" fill-rule="nonzero"/>
		<path id="Vector" d="M30.94 14.85L16 14.85L16 16L1 16C1 16.4 1 16.75 1.05 17.15L30.94 17.15C31 16.75 31 16.4 31 16C31 15.6 31 15.2 30.94 14.85Z" fill="#ED4C5C" fill-opacity="1.000000" fill-rule="nonzero"/>
		<path id="Vector" d="M1.4 19.45L30.6 19.45C30.8 18.7 30.9 17.95 30.95 17.14L1.05 17.14C1.1 17.89 1.2 18.7 1.4 19.45Z" fill="#FFFFFF" fill-opacity="1.000000" fill-rule="nonzero"/>
		<path id="Vector" d="M2.15 21.75L29.84 21.75C30.15 21 30.4 20.25 30.59 19.45L1.4 19.45C1.59 20.25 1.84 21 2.15 21.75Z" fill="#ED4C5C" fill-opacity="1.000000" fill-rule="nonzero"/>
		<path id="Vector" d="M3.34 24.05L28.65 24.05C29.09 23.3 29.5 22.55 29.84 21.75L2.15 21.75C2.5 22.55 2.9 23.3 3.34 24.05Z" fill="#FFFFFF" fill-opacity="1.000000" fill-rule="nonzero"/>
		<path id="Vector" d="M5.15 26.35L26.84 26.35C27.5 25.65 28.15 24.85 28.65 24.05L3.34 24.05C3.84 24.9 4.5 25.65 5.15 26.35Z" fill="#ED4C5C" fill-opacity="1.000000" fill-rule="nonzero"/>
		<path id="Vector" d="M7.95 28.65L24.05 28.65C25.09 28 26 27.2 26.84 26.35L5.15 26.35C6 27.25 6.95 28 7.95 28.65Z" fill="#FFFFFF" fill-opacity="1.000000" fill-rule="nonzero"/>
		<path id="Vector" d="M16 31C18.94 31 21.69 30.14 24.04 28.64L7.94 28.64C10.29 30.14 13.04 31 16 31Z" fill="#ED4C5C" fill-opacity="1.000000" fill-rule="nonzero"/>
		<path id="Vector" d="M8 3.3C6.94 3.94 6 4.75 5.15 5.6C4.44 6.3 3.84 7.1 3.34 7.89C2.9 8.64 2.44 9.39 2.15 10.2C1.84 10.95 1.59 11.7 1.4 12.5C1.19 13.25 1.09 14 1.05 14.8C1 15.2 1 15.6 1 16L16 16L16 1C13.05 1 10.34 1.85 8 3.3Z" fill="#428BC1" fill-opacity="1.000000" fill-rule="nonzero"/>
		<path id="Vector" d="M12.5 1.5L12.75 2.25L13.5 2.25L12.9 2.75L13.09 3.5L12.5 3.05L11.9 3.5L12.09 2.75L11.5 2.25L12.25 2.25L12.5 1.5Z" fill="#FFFFFF" fill-opacity="1.000000" fill-rule="nonzero"/>
		<path id="Vector" d="M14.5 4.5L14.75 5.25L15.5 5.25L14.9 5.75L15.09 6.5L14.5 6.05L13.9 6.5L14.09 5.75L13.5 5.25L14.25 5.25L14.5 4.5Z" fill="#FFFFFF" fill-opacity="1.000000" fill-rule="nonzero"/>
		<path id="Vector" d="M10.5 4.5L10.75 5.25L11.5 5.25L10.9 5.75L11.09 6.5L10.5 6.05L9.9 6.5L10.09 5.75L9.5 5.25L10.25 5.25L10.5 4.5Z" fill="#FFFFFF" fill-opacity="1.000000" fill-rule="nonzero"/>
		<path id="Vector" d="M12.5 7.5L12.75 8.25L13.5 8.25L12.9 8.75L13.09 9.5L12.5 9.05L11.9 9.5L12.09 8.75L11.5 8.25L12.25 8.25L12.5 7.5Z" fill="#FFFFFF" fill-opacity="1.000000" fill-rule="nonzero"/>
		<path id="Vector" d="M8.5 7.5L8.75 8.25L9.5 8.25L8.9 8.75L9.09 9.5L8.5 9.05L7.9 9.5L8.09 8.75L7.5 8.25L8.25 8.25L8.5 7.5Z" fill="#FFFFFF" fill-opacity="1.000000" fill-rule="nonzero"/>
		<path id="Vector" d="M4.5 7.5L4.75 8.25L5.5 8.25L4.9 8.75L5.09 9.5L4.5 9.05L3.9 9.5L4.09 8.75L3.5 8.25L4.25 8.25L4.5 7.5Z" fill="#FFFFFF" fill-opacity="1.000000" fill-rule="nonzero"/>
		<path id="Vector" d="M14.5 10.5L14.75 11.25L15.5 11.25L14.9 11.75L15.09 12.5L14.5 12.05L13.9 12.5L14.09 11.75L13.5 11.25L14.25 11.25L14.5 10.5Z" fill="#FFFFFF" fill-opacity="1.000000" fill-rule="nonzero"/>
		<path id="Vector" d="M10.5 10.5L10.75 11.25L11.5 11.25L10.9 11.75L11.09 12.5L10.5 12.05L9.9 12.5L10.09 11.75L9.5 11.25L10.25 11.25L10.5 10.5Z" fill="#FFFFFF" fill-opacity="1.000000" fill-rule="nonzero"/>
		<path id="Vector" d="M6.5 10.5L6.75 11.25L7.5 11.25L6.9 11.75L7.09 12.5L6.5 12.05L5.9 12.5L6.09 11.75L5.5 11.25L6.25 11.25L6.5 10.5Z" fill="#FFFFFF" fill-opacity="1.000000" fill-rule="nonzero"/>
		<path id="Vector" d="M12.5 13.5L12.75 14.25L13.5 14.25L12.9 14.75L13.09 15.5L12.5 15.05L11.9 15.5L12.09 14.75L11.5 14.25L12.25 14.25L12.5 13.5Z" fill="#FFFFFF" fill-opacity="1.000000" fill-rule="nonzero"/>
		<path id="Vector" d="M8.5 13.5L8.75 14.25L9.5 14.25L8.9 14.75L9.09 15.5L8.5 15.05L7.9 15.5L8.09 14.75L7.5 14.25L8.25 14.25L8.5 13.5Z" fill="#FFFFFF" fill-opacity="1.000000" fill-rule="nonzero"/>
		<path id="Vector" d="M4.5 13.5L4.75 14.25L5.5 14.25L4.9 14.75L5.09 15.5L4.5 15.05L3.9 15.5L4.09 14.75L3.5 14.25L4.25 14.25L4.5 13.5Z" fill="#FFFFFF" fill-opacity="1.000000" fill-rule="nonzero"/>
		<path id="Vector" d="M5.9 6.5L6.5 6.05L7.1 6.5L6.85 5.75L7.45 5.25L6.7 5.25L6.5 4.5L6.25 5.25L5.55 5.25L6.15 5.69L5.9 6.5Z" fill="#FFFFFF" fill-opacity="1.000000" fill-rule="nonzero"/>
		<path id="Vector" d="M1.89 12.5L2.5 12.05L3.09 12.5L2.84 11.75L3.44 11.25L2.75 11.25L2.5 10.5L2.25 11.25L1.75 11.25C1.75 11.3 1.69 11.35 1.69 11.39L2.09 11.7L1.89 12.5Z" fill="#FFFFFF" fill-opacity="1.000000" fill-rule="nonzero"/>
	</g>
</svg>
