<svg width="14.000000" height="14.000000" viewBox="0 0 14 14" fill="none" xmlns="http://www.w3.org/2000/svg" xmlns:xlink="http://www.w3.org/1999/xlink">
	<desc>
			Created with Pixso.
	</desc>
	<defs>
		<clipPath id="clip16302_16">
			<rect id="feather-linkedin" width="14.000000" height="14.000000" fill="white" fill-opacity="0"/>
		</clipPath>
	</defs>
	<rect id="feather-linkedin" width="14.000000" height="14.000000" fill="#FFFFFF" fill-opacity="0"/>
	<g clip-path="url(#clip16302_16)">
		<path id="Vector" d="M9.33 4.66C10.26 4.66 11.15 5.03 11.8 5.69C12.46 6.34 12.83 7.23 12.83 8.16L12.83 12.25L10.5 12.25L10.5 8.16C10.5 7.85 10.37 7.56 10.15 7.34C9.93 7.12 9.64 7 9.33 7C9.02 7 8.72 7.12 8.5 7.34C8.29 7.56 8.16 7.85 8.16 8.16L8.16 12.25L5.83 12.25L5.83 8.16C5.83 7.23 6.2 6.34 6.85 5.69C7.51 5.03 8.4 4.66 9.33 4.66Z" fill="#101010" fill-opacity="1.000000" fill-rule="nonzero"/>
		<path id="Vector" d="M1.16 5.25L3.5 5.25L3.5 12.25L1.16 12.25L1.16 5.25Z" fill="#101010" fill-opacity="1.000000" fill-rule="nonzero"/>
		<path id="Vector" d="M3.5 2.33C3.5 2.97 2.97 3.5 2.33 3.5C1.68 3.5 1.16 2.97 1.16 2.33C1.16 1.68 1.68 1.16 2.33 1.16C2.97 1.16 3.5 1.68 3.5 2.33Z" fill="#101010" fill-opacity="1.000000" fill-rule="evenodd"/>
	</g>
</svg>
