<svg width="14.000000" height="14.000000" viewBox="0 0 14 14" fill="none" xmlns="http://www.w3.org/2000/svg" xmlns:xlink="http://www.w3.org/1999/xlink">
	<desc>
			Created with Pixso.
	</desc>
	<defs>
		<clipPath id="clip16302_21">
			<rect id="feather-twitter" width="14.000000" height="14.000000" fill="white" fill-opacity="0"/>
		</clipPath>
	</defs>
	<rect id="feather-twitter" width="14.000000" height="14.000000" fill="#FFFFFF" fill-opacity="0"/>
	<g clip-path="url(#clip16302_21)">
		<path id="Vector" d="M13.41 1.75C12.85 2.14 12.24 2.44 11.58 2.64C11.23 2.23 10.76 1.95 10.24 1.82C9.72 1.69 9.18 1.72 8.68 1.91C8.18 2.1 7.75 2.44 7.45 2.88C7.15 3.33 6.99 3.85 7 4.39L7 4.97C5.97 5 4.95 4.77 4.04 4.31C3.12 3.85 2.33 3.17 1.75 2.33C1.75 2.33 -0.59 7.58 4.66 9.91C3.46 10.73 2.03 11.14 0.58 11.08C5.83 14 12.25 11.08 12.25 4.37C12.25 4.21 12.23 4.05 12.2 3.89C12.79 3.3 13.21 2.56 13.41 1.75Z" fill="#101010" fill-opacity="1.000000" fill-rule="nonzero"/>
	</g>
</svg>
