<svg width="24.650391" height="17.399902" viewBox="0 0 24.6504 17.3999" fill="none" xmlns="http://www.w3.org/2000/svg" xmlns:xlink="http://www.w3.org/1999/xlink">
	<desc>
			Created with Pixso.
	</desc>
	<defs/>
	<path id="Vector" d="M20.15 7.25C20.15 6.81 20.3 6.37 20.3 5.8C20.3 2.61 17.68 0 14.5 0C12.17 0 10.29 1.3 9.27 3.18C8.99 3.04 8.41 2.89 7.97 2.89C5.94 2.89 4.34 4.49 4.34 6.52C4.34 6.81 4.34 7.1 4.49 7.25C1.88 7.68 0 9.71 0 12.32C0 15.08 2.32 17.39 5.07 17.39L19.57 17.39C22.33 17.39 24.65 15.08 24.65 12.32C24.65 9.71 22.76 7.54 20.15 7.25Z" fill="#FFFFFF" fill-opacity="1.000000" fill-rule="nonzero"/>
</svg>
